<?xml version="1.0" standalone="no"?>
<!DOCTYPE svg PUBLIC "-//W3C//DTD SVG 20010904//EN"
 "http://www.w3.org/TR/2001/REC-SVG-20010904/DTD/svg10.dtd">
<svg version="1.0" xmlns="http://www.w3.org/2000/svg"
 width="500.000000pt" height="500.000000pt" viewBox="0 0 500.000000 500.000000"
 preserveAspectRatio="xMidYMid meet">

<g transform="translate(0.000000,500.000000) scale(0.100000,-0.100000)"
fill="#000000" stroke="none">
<path d="M0 2500 l0 -2500 2500 0 2500 0 0 2500 0 2500 -2500 0 -2500 0 0
-2500z m2892 1230 c78 -38 168 -122 196 -183 63 -137 63 -134 16 -262 -23 -59
-42 -88 -95 -146 l-67 -71 26 -44 c15 -24 30 -44 33 -44 7 0 53 51 67 76 6 10
12 14 12 7 0 -6 -16 -33 -36 -58 -31 -41 -34 -49 -21 -62 12 -12 28 8 125 156
l112 171 75 0 75 0 0 -395 0 -395 -55 0 -55 0 -2 356 -3 357 -123 -204 c-133
-221 -145 -239 -158 -239 -5 0 -29 32 -53 71 -33 54 -47 69 -60 64 -37 -16
-56 -16 -28 0 15 8 27 20 27 25 0 14 -61 101 -69 98 -4 -2 -30 -12 -59 -22
l-52 -20 -2 -240 -3 -241 -32 -3 -33 -3 -1 183 c-1 101 -1 199 0 219 2 25 -4
43 -17 55 -49 48 -120 176 -142 257 -9 35 -18 49 -36 53 -43 11 -59 1 -59 -36
0 -40 -15 -44 -77 -16 l-38 16 -1 -37 -1 -38 -12 40 c-12 37 -16 40 -52 43
-101 9 -154 -41 -154 -144 0 -62 9 -83 58 -136 31 -33 24 -34 -74 -11 -66 15
-74 20 -84 46 -26 76 4 198 62 254 46 44 85 61 156 69 55 6 62 9 62 29 0 12 9
57 20 99 35 136 136 260 255 311 69 30 97 34 205 31 95 -2 111 -6 172 -36z
m-1240 -625 l66 -179 121 -18 c432 -63 676 -221 592 -385 -27 -55 -88 -103
-193 -153 -99 -48 -153 -52 -67 -6 62 35 134 98 155 137 48 94 -27 189 -207
262 -47 19 -125 44 -175 55 -89 20 -194 37 -194 30 0 -1 32 -86 71 -188 39
-102 73 -193 76 -202 7 -23 -9 -23 -49 2 -18 11 -41 20 -50 20 -22 0 -25 6
-93 190 -31 85 -63 165 -71 178 -14 21 -21 22 -123 22 l-108 0 -51 -122 c-28
-68 -63 -154 -79 -193 -28 -68 -29 -70 -67 -73 -37 -3 -38 -2 -32 22 3 13 35
95 71 181 36 85 65 160 65 165 0 15 -67 12 -183 -6 -120 -19 -167 -23 -167
-14 0 8 267 75 339 86 43 7 44 8 76 78 17 39 45 104 60 144 35 88 31 94 -69
114 -38 7 -71 19 -74 26 -3 10 29 12 144 10 l149 -3 67 -180z m2413 142 c4
-13 5 -45 3 -73 -2 -36 -7 -50 -20 -52 -12 -2 -20 8 -28 36 -13 51 -42 62
-160 62 -124 0 -121 5 -118 -170 l3 -145 74 3 c103 5 121 -1 121 -38 l0 -30
-100 0 -100 0 0 -145 c0 -175 -6 -168 143 -163 110 3 135 13 174 70 10 16 22
28 26 28 4 0 7 -33 5 -72 l-3 -73 -227 -3 -228 -2 0 340 c0 222 -4 348 -11
361 -12 22 -41 36 -113 53 -28 7 -52 18 -54 24 -3 9 70 12 302 12 l306 0 5
-23z m-928 -59 c-3 -8 -6 -5 -6 6 -1 11 2 17 5 13 3 -3 4 -12 1 -19z m-36 -95
c-12 -20 -14 -14 -5 12 4 9 9 14 11 11 3 -2 0 -13 -6 -23z m-761 -41 c0 -14
84 -70 121 -80 22 -7 27 -11 13 -11 -32 -1 -86 19 -112 43 -30 26 -47 56 -32
56 5 0 10 -4 10 -8z m497 -188 c-3 -3 -12 -4 -19 -1 -8 3 -5 6 6 6 11 1 17 -2
13 -5z m-1672 -684 c3 -5 -3 -10 -14 -10 -24 0 -26 -9 -10 -44 9 -20 9 -29 -1
-41 -17 -20 -60 -20 -60 1 0 10 6 14 15 11 21 -9 27 8 13 38 -11 24 -10 29 7
41 22 16 41 18 50 4z m150 0 c3 -5 -3 -10 -14 -10 -22 0 -30 -30 -8 -30 6 0 1
-9 -12 -19 -21 -16 -21 -19 -7 -24 10 -4 14 -11 11 -17 -8 -12 -42 -13 -49 -2
-7 11 12 83 26 100 12 14 44 16 53 2z m155 1 c0 -5 -6 -11 -14 -14 -7 -3 -18
-22 -23 -43 -14 -59 -31 -53 -29 11 l1 55 33 0 c17 0 32 -4 32 -9z m144 0 c3
-5 -3 -11 -13 -14 -13 -3 -22 -17 -26 -41 -7 -35 -21 -54 -31 -43 -3 3 -1 22
5 44 7 25 7 39 1 41 -6 2 -10 8 -10 13 0 12 67 12 74 0z m92 -51 c-15 -50 -43
-72 -32 -24 12 51 29 85 37 77 5 -5 2 -28 -5 -53z m144 32 c0 -9 4 -23 9 -31
7 -11 12 -7 18 19 12 47 38 55 28 9 -13 -57 -24 -79 -41 -79 -9 0 -18 10 -21
21 -6 21 -6 21 -24 -2 -10 -13 -20 -21 -23 -18 -6 6 14 79 27 96 12 16 27 7
27 -15z m225 18 c3 -6 -4 -10 -17 -10 -30 0 -48 -18 -48 -47 0 -29 26 -30 33
-2 3 12 12 19 19 17 21 -7 15 -29 -14 -51 -27 -20 -28 -20 -48 -2 -27 24 -25
51 5 80 25 26 59 33 70 15z m265 1 c0 -5 -7 -11 -14 -14 -8 -3 -20 -24 -26
-46 -6 -23 -15 -41 -20 -41 -13 0 -13 22 0 54 6 16 6 27 0 31 -21 13 -8 25 25
25 19 0 35 -4 35 -9z m103 -21 c-8 -30 25 -25 37 6 6 14 14 23 19 20 13 -8
-12 -99 -28 -104 -10 -3 -12 2 -8 17 4 16 1 21 -13 21 -10 0 -20 -9 -23 -20
-3 -11 -11 -20 -17 -20 -13 0 -10 34 9 83 12 31 32 29 24 -3z m222 20 c3 -5
-3 -10 -14 -10 -23 0 -29 -25 -8 -33 7 -4 3 -8 -10 -12 -24 -8 -29 -20 -13
-30 17 -10 11 -25 -9 -25 -30 0 -34 16 -16 70 14 41 21 50 40 50 13 0 27 -4
30 -10z m225 0 c0 -5 -6 -10 -14 -10 -24 0 -28 -18 -11 -44 15 -22 14 -25 -1
-40 -17 -18 -63 -18 -54 -1 3 6 10 11 15 11 6 1 14 2 18 3 5 0 0 15 -10 32
-17 30 -17 31 1 45 23 16 56 19 56 4z m150 1 c0 -5 -7 -11 -14 -14 -8 -3 -18
-22 -22 -42 -6 -34 -20 -53 -30 -42 -3 3 -1 22 5 44 7 25 7 39 1 41 -6 2 -8 8
-4 13 7 12 64 12 64 0z m130 -53 c-1 -55 -2 -61 -14 -45 -15 20 -37 22 -54 5
-6 -6 -15 -9 -18 -5 -8 7 64 107 77 107 5 0 9 -28 9 -62z m148 24 c3 -32 22
-46 22 -16 0 22 20 55 30 49 9 -5 -15 -94 -30 -109 -5 -5 -16 4 -28 23 l-20
32 -6 -25 c-10 -42 -29 -32 -21 11 14 76 47 97 53 35z m230 26 c20 -20 14 -48
-17 -79 -28 -28 -74 -39 -85 -21 -4 7 18 84 30 104 8 12 59 9 72 -4z m159 -43
c0 -30 -2 -55 -4 -55 -2 0 -12 6 -23 12 -15 10 -22 10 -32 0 -14 -14 -28 -16
-28 -3 0 12 69 101 79 101 4 0 8 -25 8 -55z m181 32 c2 -10 -4 -27 -12 -36
-15 -16 -15 -19 -1 -31 8 -7 15 -16 15 -21 0 -17 -29 -9 -44 13 -14 19 -16 19
-22 5 -3 -9 -11 -17 -16 -17 -13 0 -2 79 14 98 16 19 62 11 66 -11z m185 2
c24 -38 -29 -99 -85 -99 -18 0 -19 4 -13 36 13 73 22 86 56 82 18 -2 37 -10
42 -19z m-154 -269 c30 0 51 -3 48 -7 -4 -3 -123 -12 -264 -19 -142 -7 -415
-21 -608 -31 -436 -22 -588 -21 -1145 6 -245 11 -499 24 -565 26 -66 3 -145 9
-175 13 l-55 6 50 6 c37 4 1935 4 2714 0z m-2219 -267 c8 -29 18 -53 22 -53 4
0 10 23 14 51 7 49 26 72 44 53 13 -15 -23 -185 -42 -197 -24 -16 -46 7 -59
60 -6 24 -15 46 -19 48 -5 3 -14 -19 -20 -49 -11 -54 -35 -80 -47 -51 -5 15
22 168 33 187 3 5 18 8 32 6 23 -3 29 -11 42 -55z m170 50 c0 -5 -7 -46 -16
-93 -18 -91 -35 -123 -56 -102 -9 9 -8 28 2 84 18 100 26 118 50 118 11 0 20
-3 20 -7z m168 -5 c-3 -7 -15 -15 -29 -18 -26 -6 -32 -21 -50 -113 -10 -56
-30 -80 -49 -61 -4 5 -4 36 2 69 16 93 16 100 -9 103 -23 3 -29 13 -16 25 3 4
40 7 81 7 53 0 73 -3 70 -12z m225 -6 c18 -19 14 -56 -9 -82 -9 -11 -11 -26
-4 -55 5 -21 6 -43 3 -48 -11 -18 -37 0 -48 33 -14 41 -39 46 -43 8 -6 -48
-52 -64 -52 -17 0 17 23 126 36 167 6 20 98 16 117 -6z m97 -17 l0 -36 31 36
c30 34 69 47 69 23 0 -7 -17 -29 -37 -50 l-37 -38 23 -47 c18 -37 20 -48 9
-54 -20 -13 -31 -6 -52 34 -20 39 -36 34 -36 -9 0 -25 -20 -36 -40 -24 -11 7
-11 20 3 78 9 38 17 79 17 89 0 24 8 33 32 33 14 0 18 -8 18 -35z m175 -2 c-4
-21 -11 -54 -16 -73 -13 -52 -11 -60 15 -60 29 0 44 -19 25 -31 -19 -12 -83
-11 -95 1 -7 7 -6 30 3 73 7 34 13 71 13 83 0 25 18 44 42 44 16 0 18 -5 13
-37z m283 13 c3 -15 0 -18 -21 -12 -35 8 -55 -1 -72 -35 -30 -58 -10 -107 39
-95 33 8 42 -9 14 -28 -32 -23 -65 -20 -93 9 -41 40 -26 132 26 169 33 23 102
18 107 -8z m74 19 c3 -3 2 -23 -2 -45 -7 -40 -7 -40 24 -40 30 0 33 3 42 43 7
32 14 43 32 45 12 2 22 2 22 0 0 -2 -7 -40 -14 -85 -17 -93 -30 -123 -53 -123
-13 0 -15 8 -10 40 5 40 5 40 -28 40 -29 0 -33 -3 -39 -35 -8 -39 -21 -52 -40
-36 -12 10 -8 46 20 179 4 20 32 31 46 17z m262 -3 c2 -4 10 -48 16 -96 9 -68
9 -90 0 -99 -9 -9 -16 -7 -27 11 -20 29 -69 29 -100 0 -17 -15 -26 -19 -34
-11 -8 8 1 35 32 94 23 46 47 90 52 97 11 13 53 17 61 4z m194 -4 c7 -7 12
-29 12 -49 0 -43 -35 -79 -77 -79 -18 0 -25 -7 -29 -29 -6 -31 -31 -48 -46
-33 -5 5 -2 42 7 83 26 130 20 119 73 119 26 0 53 -5 60 -12z m182 -2 c0 -9
-12 -16 -27 -18 -26 -3 -29 -8 -43 -80 -16 -83 -32 -110 -52 -90 -9 9 -9 26 0
75 16 87 15 97 -8 97 -11 0 -20 7 -20 15 0 12 15 15 75 15 58 0 75 -3 75 -14z
m130 -1 c0 -10 -11 -15 -35 -15 -19 0 -35 -4 -35 -9 0 -5 -3 -16 -6 -25 -5
-13 1 -16 26 -16 42 0 35 -24 -8 -28 -18 -2 -32 -6 -32 -10 0 -4 -3 -17 -6
-29 -5 -19 -1 -22 28 -25 21 -2 33 -8 33 -18 0 -22 -103 -27 -111 -6 -5 12 17
136 31 184 7 19 115 17 115 -3z m154 -4 c18 -20 15 -51 -8 -80 -6 -8 -11 -35
-11 -60 0 -57 -24 -64 -41 -11 -16 48 -40 51 -48 6 -7 -39 -22 -54 -38 -38
-12 12 5 150 22 183 15 27 100 27 124 0z m-1716 -113 c-5 -15 -88 -24 -88 -10
0 16 13 22 53 22 26 0 37 -4 35 -12z"/>
<path d="M2646 3748 c-10 -6 -29 -20 -42 -31 -22 -19 -22 -21 -6 -32 9 -7 43
-15 74 -18 38 -4 85 -19 135 -44 43 -21 81 -39 84 -41 14 -6 19 70 7 104 -11
31 -19 37 -76 54 -70 22 -147 25 -176 8z m27 -43 c1 -5 -15 -11 -36 -12 -31
-2 -35 0 -25 12 14 16 57 16 61 0z"/>
<path d="M2558 3736 c-16 -5 -28 -13 -28 -18 0 -4 -8 -8 -17 -8 -15 0 -15 -2
2 -14 21 -15 46 -11 42 7 -1 6 9 16 21 23 31 15 15 24 -20 10z"/>
<path d="M2424 3658 c-14 -11 -23 -23 -20 -26 3 -3 14 2 23 11 10 8 32 17 48
19 l30 3 -28 6 c-19 5 -35 0 -53 -13z"/>
<path d="M2929 3643 c0 -21 -4 -47 -8 -58 -6 -15 4 -33 43 -80 53 -62 93 -140
101 -197 3 -18 3 -26 -1 -18 -37 97 -81 173 -129 223 l-27 28 -27 -43 c-15
-24 -35 -49 -44 -57 -24 -19 -22 -30 26 -123 50 -98 77 -162 77 -183 0 -8 6
-15 14 -15 17 0 94 85 109 120 6 14 16 32 22 40 37 51 41 150 10 225 -13 34
-116 150 -146 166 -17 9 -19 6 -20 -28z"/>
<path d="M2643 3610 c31 -29 80 -81 109 -117 l52 -65 27 33 c42 50 54 85 38
105 -22 27 -104 63 -165 73 -33 5 -72 12 -89 16 -28 6 -25 2 28 -45z"/>
<path d="M2518 3593 c-9 -27 -21 -72 -27 -101 -14 -67 -14 -209 -1 -217 5 -3
38 1 72 10 68 17 211 101 216 126 7 35 -186 229 -227 229 -11 0 -22 -16 -33
-47z"/>
<path d="M2399 3605 c-57 -29 -92 -85 -116 -184 -16 -69 -16 -72 3 -98 21 -28
87 -53 144 -53 l35 0 1 128 c0 106 4 136 22 180 12 28 18 52 14 52 -23 0 -146
-140 -181 -205 -28 -52 -27 -27 0 28 27 53 73 114 113 149 37 33 27 34 -35 3z"/>
<path d="M2740 3355 c-25 -19 -64 -43 -87 -52 -24 -10 -43 -21 -43 -25 0 -5
42 -8 94 -8 l94 0 59 -87 c58 -86 81 -103 75 -54 -7 51 -117 262 -137 260 -5
0 -30 -16 -55 -34z"/>
<path d="M2500 3218 c0 -59 116 -268 141 -252 12 7 12 176 0 207 -10 25 -54
50 -108 62 -30 6 -33 4 -33 -17z"/>
<path d="M2720 3085 c0 -58 2 -105 4 -105 16 0 96 43 96 52 0 10 -90 158 -97
158 -2 0 -3 -47 -3 -105z"/>
<path d="M1473 3043 c-24 -59 -41 -108 -39 -110 2 -2 42 -3 88 -1 l85 3 -40
108 c-22 59 -43 107 -46 107 -3 0 -25 -48 -48 -107z"/>
<path d="M3483 2135 c-10 -31 -9 -35 6 -35 24 0 41 20 41 47 0 38 -35 29 -47
-12z"/>
<path d="M3846 2161 c-4 -7 -5 -15 -2 -18 9 -9 19 4 14 18 -4 11 -6 11 -12 0z"/>
<path d="M4010 2145 c-13 -35 -13 -45 4 -45 19 0 38 26 34 46 -5 28 -27 28
-38 -1z"/>
<path d="M2187 1653 c-13 -13 -7 -53 8 -53 21 0 37 34 23 48 -14 14 -22 15
-31 5z"/>
<path d="M3096 1594 c-8 -30 -3 -39 17 -31 10 3 13 15 10 31 -7 33 -19 33 -27
0z"/>
<path d="M3280 1641 c-12 -23 -13 -61 -2 -61 17 0 32 25 32 52 0 32 -15 37
-30 9z"/>
<path d="M3735 1645 c-3 -8 -7 -22 -10 -31 -4 -11 1 -15 18 -12 27 4 39 58 12
58 -8 0 -18 -7 -20 -15z"/>
</g>
</svg>
